<?xml version="1.0" encoding="utf-8"?>
<!-- Generator: Adobe Illustrator 26.3.1, SVG Export Plug-In . SVG Version: 6.00 Build 0)  -->
<svg version="1.1" id="Layer_1" xmlns="http://www.w3.org/2000/svg" xmlns:xlink="http://www.w3.org/1999/xlink" x="0px" y="0px"
	 viewBox="0 0 213.88 80.44" style="enable-background:new 0 0 213.88 80.44;" xml:space="preserve">
<style type="text/css">
	.st0{fill:#BAD9EA;}
	.st1{fill:#FFFFFF;}
	.st2{fill:#173A64;}
</style>
<path class="st0" d="M173.66,0h-26.5c-12.49,0-23.65,5.69-31.03,14.63c10.72,3.57,18.45,13.67,18.45,25.59s-7.73,22.02-18.45,25.59
	c7.38,8.93,18.54,14.63,31.03,14.63h26.5c22.21,0,40.22-18.01,40.22-40.22v0C213.88,18.01,195.87,0,173.66,0z"/>
<g>
	<path class="st0" d="M80.64,40.22c0-11.52,7.23-21.36,17.4-25.22C90.67,5.86,79.38,0,66.72,0h-26.5C18.01,0,0,18.01,0,40.22v0
		c0,22.21,18.01,40.22,40.22,40.22h26.5c12.66,0,23.95-5.86,31.32-15C87.87,61.57,80.64,51.74,80.64,40.22z"/>
	<path class="st1" d="M37.44,64.7L37.44,64.7L37.44,64.7z"/>
	<g>
		<path class="st2" d="M45.71,23.2c2.28,0,4.14-1.83,4.14-4.09s-1.86-4.09-4.14-4.09c-2.28,0-4.14,1.83-4.14,4.09
			S43.42,23.2,45.71,23.2z"/>
		<path class="st2" d="M56.51,50.36c-0.82,0.25-1.42,0.94-1.61,1.76l-0.04,0.09c-1.24,3.56-4.05,6.5-7.82,7.66
			c-1.64,0.5-3.29,0.62-4.88,0.41l0.01,0h-0.03c-2.4-0.36-4.82-1.58-6.51-3.14c-0.04-0.04-0.09-0.08-0.13-0.12
			c-0.18-0.17-0.35-0.35-0.51-0.52c-0.15-0.17-0.3-0.34-0.45-0.52c-0.05-0.06-0.09-0.12-0.14-0.18c-0.95-1.21-1.74-2.61-2.19-4.19
			l-0.01-0.01c-0.5-1.69-0.67-3.52-0.42-5.39c0.57-4.04,2.97-7.33,6.2-9.1l0.08-0.06c0.75-0.31,1.32-1.01,1.45-1.9
			c0.18-1.33-0.7-2.56-1.99-2.75c-0.48-0.07-0.96,0.01-1.37,0.22h0.03c-4.79,2.42-8.37,7.17-9.2,13.04
			c-0.38,2.71-0.13,5.36,0.64,7.8l-0.01,0c2.78,8.89,11.93,13.9,20.63,11.24c5.5-1.69,9.52-6.04,11.15-11.3l0.01,0.03
			c0.14-0.45,0.15-0.94,0.01-1.43C59.06,50.71,57.75,49.97,56.51,50.36z"/>
		<path class="st2" d="M75.88,53.74c-0.5-0.86-1.62-1.17-2.49-0.68l-2.73,1.53l-6.92-10.43c-0.26-0.39-0.76-1.2-2.11-1.28h-13v-4.13
			h9.01c1.29,0,2.34-1.16,2.34-2.59c0-1.43-1.05-2.58-2.34-2.58h-9.01v-5.37c0-1.59-1.31-2.88-2.92-2.88
			c-1.61,0-2.92,1.29-2.92,2.88v16.98c0,1.49,1.2,2.78,2.67,2.93c0.22,0.02,0.38,0.02,0.6,0.02h15.09l6.56,9.9
			c0.33,0.49,0.81,0.8,1.34,0.92c0.13,0.04,0.27,0.04,0.41,0.06c0.02,0,0.04,0,0.06,0c0.25,0.01,0.48-0.03,0.72-0.13
			c0.04-0.02,0.08-0.02,0.13-0.04c0.04-0.02,0.08-0.02,0.12-0.04l4.7-2.63C76.06,55.71,76.38,54.61,75.88,53.74z"/>
	</g>
	<path class="st2" d="M180.94,64.45c0,0.24-0.2,0.44-0.44,0.44h-36.18c-0.24,0-0.44-0.2-0.44-0.44V51.24c0-0.24,0.2-0.44,0.44-0.44
		h36.18c0.24,0,0.44,0.2,0.44,0.44V64.45 M157.43,57.09H161c0.21,0,0.38-0.17,0.38-0.39v-3.57c0-0.21-0.17-0.38-0.38-0.38h-3.57
		c-0.21,0-0.39,0.17-0.39,0.38v3.57C157.04,56.91,157.21,57.09,157.43,57.09 M150.65,58.37h-3.57c-0.22,0-0.38,0.17-0.38,0.38v3.57
		c0,0.21,0.17,0.38,0.38,0.38h3.57c0.21,0,0.39-0.17,0.39-0.38v-3.57C151.04,58.54,150.87,58.37,150.65,58.37 M150.66,57.09h3.56
		c0.22,0,0.39-0.17,0.39-0.39v-3.57c0-0.21-0.17-0.38-0.39-0.38h-3.56c-0.22,0-0.39,0.17-0.39,0.38v3.57
		C150.27,56.91,150.44,57.09,150.66,57.09 M164.19,57.09h3.57c0.21,0,0.38-0.17,0.38-0.39v-3.57c0-0.21-0.17-0.38-0.38-0.38h-3.57
		c-0.21,0-0.38,0.17-0.38,0.38v3.57C163.81,56.91,163.98,57.09,164.19,57.09 M170.96,57.09h3.57c0.21,0,0.38-0.17,0.38-0.39v-3.57
		c0-0.21-0.17-0.38-0.38-0.38h-3.57c-0.22,0-0.38,0.17-0.38,0.38v3.57C170.58,56.91,170.74,57.09,170.96,57.09 M170.95,58.37h-3.57
		c-0.21,0-0.38,0.17-0.38,0.38v3.57c0,0.21,0.17,0.38,0.38,0.38h3.57c0.21,0,0.39-0.17,0.39-0.38v-3.57
		C171.34,58.54,171.17,58.37,170.95,58.37 M157.42,58.37h-3.57c-0.21,0-0.38,0.17-0.38,0.38v3.57c0,0.21,0.17,0.38,0.38,0.38h3.57
		c0.22,0,0.39-0.17,0.39-0.38v-3.57C157.81,58.54,157.64,58.37,157.42,58.37 M177.72,58.37h-3.58c-0.21,0-0.38,0.17-0.38,0.38v3.57
		c0,0.21,0.17,0.38,0.38,0.38h3.58c0.21,0,0.38-0.17,0.38-0.38v-3.57C178.11,58.54,177.93,58.37,177.72,58.37 M164.19,58.37h-3.57
		c-0.22,0-0.39,0.17-0.39,0.38v3.57c0,0.21,0.17,0.38,0.39,0.38h3.57c0.22,0,0.39-0.17,0.39-0.38v-3.57
		C164.58,58.54,164.4,58.37,164.19,58.37 M144.76,48.55c0,0.21,0.15,0.38,0.33,0.38h34.65c0.18,0,0.33-0.18,0.33-0.38V15.94
		c0-0.21-0.15-0.39-0.33-0.39h-34.65c-0.18,0-0.33,0.17-0.33,0.39V48.55z M149.45,42.77V20.8c0-0.17,0.13-0.32,0.3-0.32h25.52
		c0.17,0,0.29,0.14,0.29,0.32v21.97c0,0.17-0.12,0.32-0.29,0.32h-25.52C149.58,43.09,149.45,42.94,149.45,42.77"/>
	<g>
		<path class="st2" d="M204.13,80.04v-4.46h-1.59v-0.91h4.27v0.91h-1.59v4.46H204.13z"/>
		<path class="st2" d="M207.49,80.04v-5.37h1.62l0.97,3.66l0.96-3.66h1.63v5.37h-1.01v-4.23l-1.07,4.23h-1.04l-1.06-4.23v4.23
			H207.49z"/>
	</g>
	<g>
		<path class="st2" d="M118.54,35.11L97.08,23.94c0,4.6,0.52,7.56,3.67,9.2l10.78,5.61L118.54,35.11z"/>
		<path class="st2" d="M121.35,36.57l-7.01,3.65l0.01,0.01l-13.5,7.02c-3.07,1.67-3.77,5.29-3.77,9.25l19.49-10.14
			C120.88,44.01,121.35,41.14,121.35,36.57L121.35,36.57z"/>
	</g>
</g>
</svg>
